<svg viewBox="0 0 120 120" xmlns="http://www.w3.org/2000/svg" role="img" aria-label="Second 9 Labs">
  <rect x="0" y="0" width="120" height="120" rx="24" fill="#1F4E8C"/>
  <g transform="translate(10.7, 12.7) scale(0.52)">
    <g fill="#F2ECDE">
      <g transform="rotate(0 96 86)"><polygon points="96,30 89,50 103,50"/></g>
      <g transform="rotate(40 96 86)"><polygon points="96,30 89,50 103,50"/></g>
      <g transform="rotate(80 96 86)"><polygon points="96,30 89,50 103,50"/></g>
      <g transform="rotate(120 96 86)"><polygon points="96,30 89,50 103,50"/></g>
      <g transform="rotate(160 96 86)"><polygon points="96,30 89,50 103,50"/></g>
      <g transform="rotate(200 96 86)"><polygon points="96,30 89,50 103,50"/></g>
      <g transform="rotate(240 96 86)"><polygon points="96,30 89,50 103,50"/></g>
      <g transform="rotate(280 96 86)"><polygon points="96,30 89,50 103,50"/></g>
      <g transform="rotate(320 96 86)"><polygon points="96,30 89,50 103,50"/></g>
    </g>
    <circle cx="96" cy="86" r="30" fill="#F2B01E"/>
    <circle cx="96" cy="86" r="12" fill="#1F4E8C"/>
    <rect x="112" y="104" width="17" height="48" fill="#F2ECDE" transform="rotate(14 112 104)"/>
  </g>
</svg>
